<?xml version="1.0" encoding="utf-8"?>
<svg version="1.1" xmlns="http://www.w3.org/2000/svg" xmlns:xlink="http://www.w3.org/1999/xlink">

<symbol id="facebook" viewBox="0 0 18 18">
    <title>Facebook</title> 
    <desc>Facebook Logo</desc>
    <path d="M10.5,18V9.8h3l0.4-3.2h-3.4v-2c0-0.9,0.3-1.6,1.7-1.6H14V0.1C13.1,0,12.2,0,11.3,0C8.7,0,6.9,1.5,6.9,4.2v2.4
	H4v3.2h3V18H10.5L10.5,18z"/>
</symbol>

<symbol id="instagram" viewBox="0 0 24 24">
    <title>Instagram</title> 
    <desc>Instagram Logo</desc>
    <path d="M12 2.163c3.204 0 3.584.012 4.85.07 3.252.148 4.771 1.691 4.919 4.919.058 1.265.069 1.645.069 4.849 0 3.205-.012 3.584-.069 4.849-.149 3.225-1.664 4.771-4.919 4.919-1.266.058-1.644.07-4.85.07-3.204 0-3.584-.012-4.849-.07-3.26-.149-4.771-1.699-4.919-4.92-.058-1.265-.07-1.644-.07-4.849 0-3.204.013-3.583.07-4.849.149-3.227 1.664-4.771 4.919-4.919 1.266-.057 1.645-.069 4.849-.069zm0-2.163c-3.259 0-3.667.014-4.947.072-4.358.2-6.78 2.618-6.98 6.98-.059 1.281-.073 1.689-.073 4.948 0 3.259.014 3.668.072 4.948.2 4.358 2.618 6.78 6.98 6.98 1.281.058 1.689.072 4.948.072 3.259 0 3.668-.014 4.948-.072 4.354-.2 6.782-2.618 6.979-6.98.059-1.28.073-1.689.073-4.948 0-3.259-.014-3.667-.072-4.947-.196-4.354-2.617-6.78-6.979-6.98-1.281-.059-1.69-.073-4.949-.073zm0 5.838c-3.403 0-6.162 2.759-6.162 6.162s2.759 6.163 6.162 6.163 6.162-2.759 6.162-6.163c0-3.403-2.759-6.162-6.162-6.162zm0 10.162c-2.209 0-4-1.79-4-4 0-2.209 1.791-4 4-4s4 1.791 4 4c0 2.21-1.791 4-4 4zm6.406-11.845c-.796 0-1.441.645-1.441 1.44s.645 1.44 1.441 1.44c.795 0 1.439-.645 1.439-1.44s-.644-1.44-1.439-1.44z"></path>
</symbol>

<symbol id="pinterest" viewBox="0 0 40 40">
    <title>Pinterest</title> 
    <desc>Pinterest Logo</desc>
    <path d="M19.934 0C8.918 0 .016 8.918.016 19.918c0 8.443 5.246 15.656 12.656 18.557-.18-1.573-.328-4 .066-5.72.36-1.558 2.328-9.903 2.328-9.903s-.59-1.196-.59-2.95c0-2.77 1.606-4.836 3.606-4.836 1.705 0 2.525 1.278 2.525 2.803 0 1.705-1.082 4.262-1.656 6.64-.476 1.983 1 3.606 2.95 3.606 3.542 0 6.263-3.738 6.263-9.115 0-4.77-3.426-8.098-8.328-8.098-5.672 0-9 4.246-9 8.639 0 1.705.656 3.541 1.475 4.541.164.197.18.377.132.574-.148.623-.492 1.983-.558 2.262-.082.36-.295.443-.672.262-2.459-1.18-4-4.82-4-7.737 0-6.28 4.557-12.05 13.164-12.05 6.902 0 12.279 4.918 12.279 11.509 0 6.868-4.328 12.393-10.328 12.393-2.017 0-3.918-1.05-4.558-2.295l-1.245 4.738c-.443 1.737-1.656 3.901-2.476 5.23 1.869.573 3.836.884 5.902.884 11 0 19.918-8.918 19.918-19.918C39.852 8.918 30.934 0 19.934 0z"></path>
</symbol>

<symbol id="linkedin" viewBox="0 0 17 17.1">
    <title>LinkedIn</title> 
    <desc>LinkedIn Logo</desc>
    <path d="M3.7,16.3H0.4V5.7h3.3V16.3z M2,4.4L2,4.4C1,4.5,0.1,3.7,0,2.7c0-0.1,0-0.1,0-0.2c0-1,0.8-1.9,1.9-1.8c0,0,0.1,0,0.1,0
	c1-0.1,1.9,0.6,2,1.6c0.1,1-0.6,1.9-1.6,2C2.3,4.4,2.1,4.4,2,4.4z M17,16.3h-3.8v-5.5c0-1.4-0.6-2.4-1.9-2.4c-0.8,0-1.5,0.5-1.8,1.3
	c-0.1,0.3-0.1,0.6-0.1,0.9v5.7H5.8c0,0,0-9.7,0-10.6h3.7v1.7c0.7-1.2,2-1.9,3.3-1.8c2.4,0,4.2,1.5,4.2,4.8V16.3z"/>
</symbol>

<symbol id="twitter" viewBox="0 0 17.2 17.2">
    <title>Twitter</title> 
    <desc>Twitter Logo</desc>
    <path d="M17.2,3.3L17.2,3.3 M11.9,1.6c-2,0-3.5,1.6-3.5,3.5c0,0.3,0,0.5,0.1,0.8C5.6,5.8,3,4.5,1.2,2.3C0.3,3.9,0.7,6,2.3,7
	C1.7,7,1.2,6.8,0.7,6.6c0,0,0,0,0,0c0,1.7,1.2,3.1,2.8,3.5c-0.3,0.1-0.6,0.1-0.9,0.1c-0.2,0-0.4,0-0.7-0.1c0.5,1.4,1.8,2.4,3.3,2.5
	c-1.3,1-2.8,1.5-4.4,1.5c-0.3,0-0.6,0-0.8,0c4.7,3,10.9,1.6,13.9-3c1-1.6,1.6-3.5,1.6-5.4c0-0.2,0-0.3,0-0.5
	c0.7-0.5,1.3-1.1,1.8-1.8c-0.6,0.3-1.3,0.5-2,0.6c0.7-0.4,1.3-1.1,1.6-2c-0.7,0.4-1.5,0.7-2.2,0.9C13.8,2,12.9,1.6,11.9,1.6"/>
</symbol>

<symbol id="youtube" viewBox="0 0 24 23.9">
    <title>YouTube</title> 
    <desc>YouTube Logo</desc>
    <path d="M23.7,7.1c-0.1-0.9-0.4-1.7-1-2.4c-0.6-0.6-1.5-1-2.4-1C17,3.4,12,3.4,12,3.4h0c0,0-5,0-8.4,0.2c-0.9,0-1.8,0.4-2.4,1
	c-0.5,0.7-0.8,1.5-1,2.4C0.1,8.4,0,9.7,0,11v1.8c0,1.3,0.1,2.6,0.2,3.9c0.1,0.9,0.4,1.7,1,2.4c0.7,0.7,1.7,1,2.6,1
	c1.9,0.2,8.2,0.2,8.2,0.2s5,0,8.4-0.2c0.9,0,1.8-0.4,2.4-1c0.5-0.7,0.8-1.5,1-2.4c0.1-1.3,0.2-2.6,0.2-3.9V11
	C24,9.7,23.9,8.4,23.7,7.1z M9.5,15.1V8.3l6.5,3.4L9.5,15.1z"/>
</symbol>

<symbol id="hamburger" viewBox="0 0 32 32">
    <title>Menu</title> 
    <desc>Hamburger Menu</desc>
    <path d="M4,10h24c1.104,0,2-0.896,2-2s-0.896-2-2-2H4C2.896,6,2,6.896,2,8S2.896,10,4,10z M28,14H4c-1.104,0-2,0.896-2,2  s0.896,2,2,2h24c1.104,0,2-0.896,2-2S29.104,14,28,14z M28,22H4c-1.104,0-2,0.896-2,2s0.896,2,2,2h24c1.104,0,2-0.896,2-2  S29.104,22,28,22z"/>
</symbol>

<symbol id="search" viewBox="0 0 32 32">
    <title>Search</title> 
    <desc>Search</desc>
        <circle cx="16" cy="16" r="15.5" fill-opacity="0"></circle>
        <path d="M14.3222 20.6444C13.0718 20.6444 11.8495 20.2736 10.8098 19.5789C9.7701 18.8843 8.95977 17.8969 8.48125 16.7416C8.00274 15.5864 7.87754 14.3152 8.12148 13.0888C8.36543 11.8624 8.96756 10.7359 9.85174 9.85174C10.7359 8.96756 11.8624 8.36543 13.0888 8.12148C14.3152 7.87754 15.5864 8.00274 16.7416 8.48125C17.8968 8.95977 18.8842 9.7701 19.5789 10.8098C20.2736 11.8495 20.6444 13.0718 20.6444 14.3222C20.6444 15.1525 20.4809 15.9746 20.1632 16.7416C19.8455 17.5087 19.3798 18.2056 18.7927 18.7927C18.2056 19.3798 17.5087 19.8455 16.7416 20.1632C15.9746 20.4809 15.1525 20.6444 14.3222 20.6444ZM14.3222 9.1495C13.2991 9.1495 12.2991 9.45287 11.4484 10.0213C10.5978 10.5896 9.93476 11.3975 9.54325 12.3427C9.15173 13.2879 9.0493 14.328 9.24889 15.3314C9.44848 16.3348 9.94113 17.2565 10.6645 17.9799C11.388 18.7033 12.3097 19.196 13.3131 19.3955C14.3165 19.5951 15.3565 19.4927 16.3017 19.1012C17.2469 18.7097 18.0548 18.0467 18.6232 17.196C19.1916 16.3454 19.4949 15.3453 19.4949 14.3222C19.4949 13.6429 19.3611 12.9703 19.1012 12.3427C18.8412 11.7151 18.4602 11.1449 17.9799 10.6646C17.4995 10.1842 16.9293 9.8032 16.3017 9.54325C15.6741 9.28329 15.0015 9.1495 14.3222 9.1495Z"></path>
        <path d="M23.0225 23.8329L17.8824 18.8236L18.6927 18.0132L23.8329 23.0225C23.9399 23.1302 24 23.2759 24 23.4277C24 23.5796 23.9399 23.7252 23.8329 23.8329C23.7252 23.94 23.5795 24 23.4277 24C23.2758 24 23.1301 23.94 23.0225 23.8329Z"></path>
</symbol>

</svg>
