<svg width="200px" height="200px" viewBox="0 -20 180 160" version="1.1" xmlns="http://www.w3.org/2000/svg" xmlns:xlink="http://www.w3.org/1999/xlink">
    <defs>
        <style>
            .outer-ring {
              fill: #008c99;
            }

            .inner-ring {
              fill: #70ccd3;
            }
        </style>
    </defs>
    <title>New Relic logo</title>
    <g>
        <path class="outer-ring" d="M168.72,55.82C161.07,20.67,118.92,0,74.56,9.64S.45,55.6,8.09,90.74s49.8,55.83,94.15,46.18S176.36,91,168.72,55.82ZM88.41,105.68a32.4,32.4,0,1,1,32.4-32.4A32.4,32.4,0,0,1,88.41,105.68Z" transform="translate(-6.9 -7.27)"></path>
        <path class="inner-ring" d="M95.57,27.92A46.52,46.52,0,1,0,142.1,74.44,46.52,46.52,0,0,0,95.57,27.92Zm-7.17,73.66a28.3,28.3,0,1,1,28.3-28.3A28.3,28.3,0,0,1,88.41,101.58Z" transform="translate(-6.9 -7.27)"></path>
    </g>
</svg>